<?xml version="1.0" encoding="UTF-8" standalone="no"?><svg xmlns="http://www.w3.org/2000/svg" xmlns:xlink="http://www.w3.org/1999/xlink" contentScriptType="application/ecmascript" contentStyleType="text/css" height="572px" preserveAspectRatio="none" style="width:1005px;height:572px;background:#FEFEFE;" version="1.1" viewBox="0 0 1005 572" width="1005px" zoomAndPan="magnify"><defs><filter height="300%" id="falzsh0pksrqp" width="300%" x="-1" y="-1"><feGaussianBlur result="blurOut" stdDeviation="2.0"/><feColorMatrix in="blurOut" result="blurOut2" type="matrix" values="0 0 0 0 0 0 0 0 0 0 0 0 0 0 0 0 0 0 .4 0"/><feOffset dx="4.0" dy="4.0" in="blurOut2" result="blurOut3"/><feBlend in="SourceGraphic" in2="blurOut3" mode="normal"/></filter></defs><g><!--MD5=[574a6c6adf1f516cc8b7de3c41712019]
cluster cmd/lessgo--><polygon fill="#FEFEFE" filter="url(#falzsh0pksrqp)" points="347,24.5,433,24.5,440,49.5679,443,49.5679,443,117.5,347,117.5,347,24.5" style="stroke: #000000; stroke-width: 1.5;"/><line style="stroke: #000000; stroke-width: 1.5;" x1="347" x2="440" y1="49.5679" y2="49.5679"/><text fill="#000000" font-family="sans-serif" font-size="14" font-weight="bold" lengthAdjust="spacingAndGlyphs" textLength="80" x="351" y="41.4659">cmd/lessgo</text><!--MD5=[4996d474fb7be0afdad8cdb305552aa1]
cluster dst--><polygon fill="#FEFEFE" filter="url(#falzsh0pksrqp)" points="177,168.5,205,168.5,212,193.5679,508,193.5679,508,416,177,416,177,168.5" style="stroke: #000000; stroke-width: 1.5;"/><line style="stroke: #000000; stroke-width: 1.5;" x1="177" x2="212" y1="193.5679" y2="193.5679"/><text fill="#000000" font-family="sans-serif" font-size="14" font-weight="bold" lengthAdjust="spacingAndGlyphs" textLength="22" x="181" y="185.4659">dst</text><!--MD5=[15fc82c34bc74ee65deb32ac6f9547dd]
cluster renderer--><polygon fill="#FEFEFE" filter="url(#falzsh0pksrqp)" points="573,168.5,639,168.5,646,193.5679,689,193.5679,689,261.5,573,261.5,573,168.5" style="stroke: #000000; stroke-width: 1.5;"/><line style="stroke: #000000; stroke-width: 1.5;" x1="573" x2="646" y1="193.5679" y2="193.5679"/><text fill="#000000" font-family="sans-serif" font-size="14" font-weight="bold" lengthAdjust="spacingAndGlyphs" textLength="60" x="577" y="185.4659">renderer</text><!--MD5=[aad8308ecacddcbd648b7f9552bf9316]
cluster expression--><polygon fill="#FEFEFE" filter="url(#falzsh0pksrqp)" points="532,323,613,323,620,348.0679,759,348.0679,759,560,532,560,532,323" style="stroke: #000000; stroke-width: 1.5;"/><line style="stroke: #000000; stroke-width: 1.5;" x1="532" x2="620" y1="348.0679" y2="348.0679"/><text fill="#000000" font-family="sans-serif" font-size="14" font-weight="bold" lengthAdjust="spacingAndGlyphs" textLength="75" x="536" y="339.9659">expression</text><!--MD5=[eb38af806e730640fb5b85583771639f]
cluster expression/functions--><polygon fill="#FEFEFE" filter="url(#falzsh0pksrqp)" points="821,467,973,467,980,492.0679,983,492.0679,983,560,821,560,821,467" style="stroke: #000000; stroke-width: 1.5;"/><line style="stroke: #000000; stroke-width: 1.5;" x1="821" x2="980" y1="492.0679" y2="492.0679"/><text fill="#000000" font-family="sans-serif" font-size="14" font-weight="bold" lengthAdjust="spacingAndGlyphs" textLength="146" x="825" y="483.9659">expression/functions</text><!--MD5=[844918ebf0812f573a9b0be14b7b30bd]
cluster evaluator--><polygon fill="#FEFEFE" filter="url(#falzsh0pksrqp)" points="22,24.5,94,24.5,101,49.5679,140,49.5679,140,117.5,22,117.5,22,24.5" style="stroke: #000000; stroke-width: 1.5;"/><line style="stroke: #000000; stroke-width: 1.5;" x1="22" x2="101" y1="49.5679" y2="49.5679"/><text fill="#000000" font-family="sans-serif" font-size="14" font-weight="bold" lengthAdjust="spacingAndGlyphs" textLength="66" x="26" y="41.4659">evaluator</text><!--MD5=[df6a39b053164d23cc3ecae9c3484a54]
entity CLI--><rect fill="#FEFECE" filter="url(#falzsh0pksrqp)" height="39.0679" style="stroke: #A80036; stroke-width: 1.5;" width="41" x="374.5" y="62.5"/><rect fill="#FEFECE" height="5" style="stroke: #A80036; stroke-width: 1.5;" width="10" x="369.5" y="67.5"/><rect fill="#FEFECE" height="5" style="stroke: #A80036; stroke-width: 1.5;" width="10" x="369.5" y="91.5679"/><text fill="#000000" font-family="sans-serif" font-size="14" lengthAdjust="spacingAndGlyphs" textLength="21" x="384.5" y="87.4659">CLI</text><!--MD5=[b8966a4a60ec894312d4f55fd40cce21]
entity Parser--><rect fill="#FEFECE" filter="url(#falzsh0pksrqp)" height="39.0679" style="stroke: #A80036; stroke-width: 1.5;" width="63" x="195.5" y="206.5"/><rect fill="#FEFECE" height="5" style="stroke: #A80036; stroke-width: 1.5;" width="10" x="190.5" y="211.5"/><rect fill="#FEFECE" height="5" style="stroke: #A80036; stroke-width: 1.5;" width="10" x="190.5" y="235.5679"/><text fill="#000000" font-family="sans-serif" font-size="14" lengthAdjust="spacingAndGlyphs" textLength="43" x="205.5" y="231.4659">Parser</text><!--MD5=[7f68e42f4b41d82b0f515ea73609512c]
entity Print--><rect fill="#FEFECE" filter="url(#falzsh0pksrqp)" height="39.0679" style="stroke: #A80036; stroke-width: 1.5;" width="52" x="303" y="206.5"/><rect fill="#FEFECE" height="5" style="stroke: #A80036; stroke-width: 1.5;" width="10" x="298" y="211.5"/><rect fill="#FEFECE" height="5" style="stroke: #A80036; stroke-width: 1.5;" width="10" x="298" y="235.5679"/><text fill="#000000" font-family="sans-serif" font-size="14" lengthAdjust="spacingAndGlyphs" textLength="32" x="313" y="231.4659">Print</text><!--MD5=[d916329757364bfd539ac583f6edc283]
entity File--><rect fill="#FEFECE" filter="url(#falzsh0pksrqp)" height="39.0679" style="stroke: #A80036; stroke-width: 1.5;" width="43" x="355.5" y="361"/><rect fill="#FEFECE" height="5" style="stroke: #A80036; stroke-width: 1.5;" width="10" x="350.5" y="366"/><rect fill="#FEFECE" height="5" style="stroke: #A80036; stroke-width: 1.5;" width="10" x="350.5" y="390.0679"/><text fill="#000000" font-family="sans-serif" font-size="14" lengthAdjust="spacingAndGlyphs" textLength="23" x="365.5" y="385.9659">File</text><!--MD5=[c82d4dac6874566d025e1349302c6d1f]
entity Formatter--><rect fill="#FEFECE" filter="url(#falzsh0pksrqp)" height="39.0679" style="stroke: #A80036; stroke-width: 1.5;" width="86" x="399" y="206.5"/><rect fill="#FEFECE" height="5" style="stroke: #A80036; stroke-width: 1.5;" width="10" x="394" y="211.5"/><rect fill="#FEFECE" height="5" style="stroke: #A80036; stroke-width: 1.5;" width="10" x="394" y="235.5679"/><text fill="#000000" font-family="sans-serif" font-size="14" lengthAdjust="spacingAndGlyphs" textLength="66" x="409" y="231.4659">Formatter</text><!--MD5=[5c9cf34a4c01c9363786ad111be2bbab]
entity Renderer--><rect fill="#FEFECE" filter="url(#falzsh0pksrqp)" height="39.0679" style="stroke: #A80036; stroke-width: 1.5;" width="83" x="589.5" y="206.5"/><rect fill="#FEFECE" height="5" style="stroke: #A80036; stroke-width: 1.5;" width="10" x="584.5" y="211.5"/><rect fill="#FEFECE" height="5" style="stroke: #A80036; stroke-width: 1.5;" width="10" x="584.5" y="235.5679"/><text fill="#000000" font-family="sans-serif" font-size="14" lengthAdjust="spacingAndGlyphs" textLength="63" x="599.5" y="231.4659">Renderer</text><!--MD5=[dc34c93a6e1333a0ed25f69eb4b319d3]
entity ExprEvaluator--><rect fill="#FEFECE" filter="url(#falzsh0pksrqp)" height="39.0679" style="stroke: #A80036; stroke-width: 1.5;" width="113" x="622.5" y="361"/><rect fill="#FEFECE" height="5" style="stroke: #A80036; stroke-width: 1.5;" width="10" x="617.5" y="366"/><rect fill="#FEFECE" height="5" style="stroke: #A80036; stroke-width: 1.5;" width="10" x="617.5" y="390.0679"/><text fill="#000000" font-family="sans-serif" font-size="14" lengthAdjust="spacingAndGlyphs" textLength="93" x="632.5" y="385.9659">ExprEvaluator</text><!--MD5=[d7735d92f2a41b821568342a009b1039]
entity Value--><rect fill="#FEFECE" filter="url(#falzsh0pksrqp)" height="39.0679" style="stroke: #A80036; stroke-width: 1.5;" width="57" x="554.5" y="505"/><rect fill="#FEFECE" height="5" style="stroke: #A80036; stroke-width: 1.5;" width="10" x="549.5" y="510"/><rect fill="#FEFECE" height="5" style="stroke: #A80036; stroke-width: 1.5;" width="10" x="549.5" y="534.0679"/><text fill="#000000" font-family="sans-serif" font-size="14" lengthAdjust="spacingAndGlyphs" textLength="37" x="564.5" y="529.9659">Value</text><!--MD5=[e549be916c8e52a87a28a74e5ef26cb5]
entity Color--><rect fill="#FEFECE" filter="url(#falzsh0pksrqp)" height="39.0679" style="stroke: #A80036; stroke-width: 1.5;" width="55" x="658.5" y="505"/><rect fill="#FEFECE" height="5" style="stroke: #A80036; stroke-width: 1.5;" width="10" x="653.5" y="510"/><rect fill="#FEFECE" height="5" style="stroke: #A80036; stroke-width: 1.5;" width="10" x="653.5" y="534.0679"/><text fill="#000000" font-family="sans-serif" font-size="14" lengthAdjust="spacingAndGlyphs" textLength="35" x="668.5" y="529.9659">Color</text><!--MD5=[125141a8bdde939693ba5bb1c55520ef]
entity Functions--><rect fill="#FEFECE" filter="url(#falzsh0pksrqp)" height="39.0679" style="stroke: #A80036; stroke-width: 1.5;" width="85" x="856.5" y="505"/><rect fill="#FEFECE" height="5" style="stroke: #A80036; stroke-width: 1.5;" width="10" x="851.5" y="510"/><rect fill="#FEFECE" height="5" style="stroke: #A80036; stroke-width: 1.5;" width="10" x="851.5" y="534.0679"/><text fill="#000000" font-family="sans-serif" font-size="14" lengthAdjust="spacingAndGlyphs" textLength="65" x="866.5" y="529.9659">Functions</text><!--MD5=[e4b93af117e92c8e3f407d0e8f93014f]
entity Tokenizer--><rect fill="#FEFECE" filter="url(#falzsh0pksrqp)" height="39.0679" style="stroke: #A80036; stroke-width: 1.5;" width="85" x="38.5" y="62.5"/><rect fill="#FEFECE" height="5" style="stroke: #A80036; stroke-width: 1.5;" width="10" x="33.5" y="67.5"/><rect fill="#FEFECE" height="5" style="stroke: #A80036; stroke-width: 1.5;" width="10" x="33.5" y="91.5679"/><text fill="#000000" font-family="sans-serif" font-size="14" lengthAdjust="spacingAndGlyphs" textLength="65" x="48.5" y="87.4659">Tokenizer</text><!--MD5=[f58808b4bc5a42756653faa9c8e7b92e]
entity Evaluator--><ellipse cx="81" cy="226" fill="#FEFECE" filter="url(#falzsh0pksrqp)" rx="8" ry="8" style="stroke: #A80036; stroke-width: 2.0;"/><text fill="#000000" font-family="sans-serif" font-size="14" lengthAdjust="spacingAndGlyphs" textLength="63" x="49.5" y="257.9659">Evaluator</text><!--MD5=[ed572f05148ca40299a128c589f42208]
link CLI to Parser--><path d="M374.34,83.59 C341.47,85.72 277.56,94.91 244,133.5 C227.94,151.97 224.93,180.61 225.15,200.93 " fill="none" id="CLI-&gt;Parser" style="stroke: #A80036; stroke-width: 1.0;"/><polygon fill="#A80036" points="225.28,206.16,229.0733,197.0709,225.1657,201.1613,221.0754,197.2538,225.28,206.16" style="stroke: #A80036; stroke-width: 1.0;"/><text fill="#000000" font-family="sans-serif" font-size="13" lengthAdjust="spacingAndGlyphs" textLength="64" x="245" y="148.397">parse LESS</text><!--MD5=[bfbf91169dfc12b3ffbdf3e2bfbd072e]
link CLI to Renderer--><path d="M415.88,90.87 C438.88,99.88 476.63,115.72 507,133.5 C542.58,154.33 580.25,183.23 604.61,202.94 " fill="none" id="CLI-&gt;Renderer" style="stroke: #A80036; stroke-width: 1.0;"/><polygon fill="#A80036" points="608.7,206.27,604.2532,197.4822,604.8251,203.11,599.1973,203.682,608.7,206.27" style="stroke: #A80036; stroke-width: 1.0;"/><text fill="#000000" font-family="sans-serif" font-size="13" lengthAdjust="spacingAndGlyphs" textLength="88" x="536" y="148.397">compile to CSS</text><!--MD5=[114ee800bee241feecb6b409a332b99c]
link CLI to Print--><path d="M374.25,91.27 C357.29,99.28 334.47,113.2 324,133.5 C313.2,154.44 316.57,181.77 321.32,201.09 " fill="none" id="CLI-&gt;Print" style="stroke: #A80036; stroke-width: 1.0;"/><polygon fill="#A80036" points="322.69,206.31,324.2735,196.5893,321.4203,201.4739,316.5357,198.6207,322.69,206.31" style="stroke: #A80036; stroke-width: 1.0;"/><text fill="#000000" font-family="sans-serif" font-size="13" lengthAdjust="spacingAndGlyphs" textLength="86" x="325" y="148.397">introspect AST</text><!--MD5=[f5d6a147c406c4e3d7d0abd5c88a0201]
link CLI to Formatter--><path d="M405.53,101.74 C410.45,111.07 416.07,122.65 420,133.5 C428.14,155.96 434.16,182.62 437.83,201.35 " fill="none" id="CLI-&gt;Formatter" style="stroke: #A80036; stroke-width: 1.0;"/><polygon fill="#A80036" points="438.8,206.42,441.0325,196.8275,437.8579,201.5096,433.1758,198.3349,438.8,206.42" style="stroke: #A80036; stroke-width: 1.0;"/><text fill="#000000" font-family="sans-serif" font-size="13" lengthAdjust="spacingAndGlyphs" textLength="72" x="426" y="148.397">format LESS</text><!--MD5=[1ba9ad9954c7da039bd57efba6d055f7]
link Parser to File--><path d="M229.21,245.63 C232.1,263.1 238.62,289.14 253,307 C278.73,338.95 322.58,359.77 350.65,370.58 " fill="none" id="Parser-&gt;File" style="stroke: #A80036; stroke-width: 1.0;"/><polygon fill="#A80036" points="355.36,372.35,348.363,365.4188,350.6848,370.5772,345.5265,372.899,355.36,372.35" style="stroke: #A80036; stroke-width: 1.0;"/><text fill="#000000" font-family="sans-serif" font-size="13" lengthAdjust="spacingAndGlyphs" textLength="56" x="254" y="302.897">produces</text><!--MD5=[6a809f2545da4aef412b06927bea65d8]
link Renderer to File--><path d="M600.11,245.55 C549.65,275.84 450.43,335.41 403.19,363.77 " fill="none" id="Renderer-&gt;File" style="stroke: #A80036; stroke-width: 1.0;"/><polygon fill="#A80036" points="398.79,366.42,408.5625,365.1956,403.0712,363.837,404.4297,358.3457,398.79,366.42" style="stroke: #A80036; stroke-width: 1.0;"/><text fill="#000000" font-family="sans-serif" font-size="13" lengthAdjust="spacingAndGlyphs" textLength="61" x="527" y="302.897">consumes</text><!--MD5=[5416dfd547757eab90d1b836f37e22e3]
link Formatter to File--><path d="M434.03,245.7 C422.19,273.48 399.96,325.63 387.03,355.97 " fill="none" id="Formatter-&gt;File" style="stroke: #A80036; stroke-width: 1.0;"/><polygon fill="#A80036" points="385.04,360.65,392.2442,353.9344,386.9975,356.0491,384.8828,350.8024,385.04,360.65" style="stroke: #A80036; stroke-width: 1.0;"/><text fill="#000000" font-family="sans-serif" font-size="13" lengthAdjust="spacingAndGlyphs" textLength="61" x="416" y="302.897">consumes</text><!--MD5=[6d91a7b73964099558e295fbd7777f8b]
link Print to File--><path d="M323.61,245.61 C319.75,262.15 316.29,286.77 323,307 C329.22,325.77 342.39,343.62 354.17,356.91 " fill="none" id="Print-&gt;File" style="stroke: #A80036; stroke-width: 1.0;"/><polygon fill="#A80036" points="357.77,360.89,354.6847,351.5369,354.4102,357.1871,348.76,356.9126,357.77,360.89" style="stroke: #A80036; stroke-width: 1.0;"/><text fill="#000000" font-family="sans-serif" font-size="13" lengthAdjust="spacingAndGlyphs" textLength="61" x="324" y="302.897">consumes</text><!--MD5=[f8955c9402d3c9a8dd42c2413ad054cd]
link Renderer to ExprEvaluator--><path d="M636.89,245.7 C645.59,273.37 661.91,325.21 671.48,355.6 " fill="none" id="Renderer-&gt;ExprEvaluator" style="stroke: #A80036; stroke-width: 1.0;"/><polygon fill="#A80036" points="673.07,360.65,674.1784,350.8637,671.5664,355.8814,666.5487,353.2695,673.07,360.65" style="stroke: #A80036; stroke-width: 1.0;"/><text fill="#000000" font-family="sans-serif" font-size="13" lengthAdjust="spacingAndGlyphs" textLength="125" x="656" y="302.897">evaluate expressions</text><!--MD5=[aff894269e2ddf4c48b853a27dc5d10b]
link Renderer to Functions--><path d="M672.75,236.07 C706.85,245.01 754.96,261.29 790,288 C853.2,336.18 869.97,356.91 896,432 C903.61,453.96 903.51,480.69 902.02,499.58 " fill="none" id="Renderer-&gt;Functions" style="stroke: #A80036; stroke-width: 1.0;"/><polygon fill="#A80036" points="901.56,504.69,906.3406,496.0792,902.0024,499.7096,898.372,495.3714,901.56,504.69" style="stroke: #A80036; stroke-width: 1.0;"/><text fill="#000000" font-family="sans-serif" font-size="13" lengthAdjust="spacingAndGlyphs" textLength="78" x="893" y="385.897">call functions</text><!--MD5=[d3dbe98d77ac095fa81ec7361ad04f89]
link ExprEvaluator to Value--><path d="M644.66,400.18 C632.19,408.46 618.97,419.25 610,432 C595.74,452.27 588.93,480.1 585.73,499.73 " fill="none" id="ExprEvaluator-&gt;Value" style="stroke: #A80036; stroke-width: 1.0;"/><polygon fill="#A80036" points="584.95,504.79,590.2666,496.4994,585.7071,499.8476,582.3588,495.2881,584.95,504.79" style="stroke: #A80036; stroke-width: 1.0;"/><text fill="#000000" font-family="sans-serif" font-size="13" lengthAdjust="spacingAndGlyphs" textLength="61" x="611" y="446.897">arithmetic</text><!--MD5=[958abbdc7c6ab0f6939546ca6cd9a58e]
link ExprEvaluator to Color--><path d="M679.92,400.06 C681.18,425.68 683.46,471.88 684.84,499.92 " fill="none" id="ExprEvaluator-&gt;Color" style="stroke: #A80036; stroke-width: 1.0;"/><polygon fill="#A80036" points="685.08,504.93,688.6387,495.7465,684.8374,499.9359,680.6481,496.1347,685.08,504.93" style="stroke: #A80036; stroke-width: 1.0;"/><text fill="#000000" font-family="sans-serif" font-size="13" lengthAdjust="spacingAndGlyphs" textLength="55" x="683" y="446.897">color ops</text><!--MD5=[f0c4234f8cf7aa332ff62416646ccee9]
link ExprEvaluator to Functions--><path d="M705.31,400.2 C725.54,414.43 754.28,434.33 780,451 C807.52,468.83 839.27,488.11 863.04,502.3 " fill="none" id="ExprEvaluator-&gt;Functions" style="stroke: #A80036; stroke-width: 1.0;"/><polygon fill="#A80036" points="867.39,504.89,861.7305,496.8296,863.1025,502.3175,857.6146,503.6895,867.39,504.89" style="stroke: #A80036; stroke-width: 1.0;"/><text fill="#000000" font-family="sans-serif" font-size="13" lengthAdjust="spacingAndGlyphs" textLength="110" x="781" y="446.897">evaluate functions</text><!--MD5=[c0a5d5233697cfc59255ad4645a40715]
link Tokenizer to Evaluator--><path d="M79.62,101.69 C78.99,111.21 78.31,122.97 78,133.5 C77.17,161.43 78.9,194.15 80.06,211.91 " fill="none" id="Tokenizer-&gt;Evaluator" style="stroke: #A80036; stroke-width: 1.0;"/><polygon fill="#A80036" points="80.4,216.92,83.7995,207.6764,80.0712,211.9308,75.8168,208.2025,80.4,216.92" style="stroke: #A80036; stroke-width: 1.0;"/><text fill="#000000" font-family="sans-serif" font-size="13" lengthAdjust="spacingAndGlyphs" textLength="102" x="79" y="148.397">guard conditions</text><!--MD5=[f44b5c7de893f99be2aed0d76d3c062f]
@startuml lessgo
skinparam backgroundColor #FEFEFE

package cmd/lessgo {
  [CLI]
}

package dst {
  [Parser]
  [Print]
  [File]
  [Formatter]
}

package renderer {
  [Renderer]
}

package expression {
  [ExprEvaluator]
  [Value]
  [Color]
}

package expression/functions {
  [Functions]
}

package evaluator {
  [Tokenizer]
}

CLI - -> Parser : parse LESS
CLI - -> Renderer : compile to CSS
CLI - -> Print : introspect AST
CLI - -> Formatter : format LESS

Parser - -> File : produces
Renderer - -> File : consumes
Formatter - -> File : consumes
Print - -> File : consumes

Renderer - -> ExprEvaluator : evaluate expressions
Renderer - -> Functions : call functions
ExprEvaluator - -> Value : arithmetic
ExprEvaluator - -> Color : color ops
ExprEvaluator - -> Functions : evaluate functions
Tokenizer - -> Evaluator : guard conditions

@enduml

PlantUML version 1.2020.02(Sun Mar 01 11:22:07 CET 2020)
(GPL source distribution)
Java Runtime: OpenJDK Runtime Environment
JVM: OpenJDK 64-Bit Server VM
Java Version: 21.0.9-ea+8-Ubuntu-1
Operating System: Linux
Default Encoding: UTF-8
Language: en
Country: US
--></g></svg>